<svg version="1" xmlns="http://www.w3.org/2000/svg" width="933.333" height="933.333" viewBox="0 0 700.000000 700.000000"><path d="M169.7 62.3c-1.4 1.8-15.5 25-31.4 51.7-42.2 70.6-70.9 118.6-75.4 125.9-2.1 3.4-3.9 6.5-3.9 6.7 0 .2-1.6 2.8-3.5 5.8s-3.5 6-3.5 6.6c0 .5-.4 1-1 1-.5 0-1 .4-1 .8 0 .5-7.3 13-16.1 27.8-8.9 14.8-17 28.2-17.9 29.9-.9 1.6-5 8.4-8.9 14.9C1.9 342 0 345.9.4 347.5c.3 1.3 2.3 5 4.3 8.3 2.1 3.4 8.5 13.8 14.3 23.1l10.4 16.9 3.6-2.7c1.9-1.5 5.5-3.3 8-3.8 3-.7 31.2-1 83.5-.9 70.2.2 79.4.4 82.5 1.8 5.6 2.6 8.6 5.7 14.3 15.3l5.4 9h52.2c28.6 0 52.1-.1 52.1-.4 0-.2-2.1-3.8-4.7-8-2.7-4.2-5.2-8.4-5.8-9.3-.5-1-5.9-9.7-11.9-19.3-10.3-16.7-10.8-17.8-11.1-23.7-.2-3.8.2-7.5 1-9.5.8-1.8 9.1-16.1 18.4-31.7 9.4-15.6 17.3-29 17.6-29.8.5-1.2-7.5-1.4-57.4-1.4-53.9 0-58.2-.2-60-1.8-1-.9-2.1-2.6-2.4-3.6-.4-1.8 2.1-7.6 6.2-14.6 1.1-1.7 8.8-15 17.4-29.5 22.8-39 22.6-38.7 24.3-40.3 1.4-1.4 11.2-1.6 88.9-1.6h87.4l2.5 2.2c1.4 1.3 8.4 12.9 15.5 25.8 7.2 12.9 13.5 24.2 14 25 .6.8 2.2 3.7 3.7 6.5 1.4 2.7 4.2 7.6 6.1 10.7l3.4 5.8h162.1l-2-3.3c-1.1-1.7-14.7-24.6-30.2-50.7-15.6-26.1-40-67.1-54.3-91-14.3-23.9-27.5-46.2-29.5-49.5-1.9-3.3-4.6-7.4-5.9-9.2l-2.3-3.2H172.1l-2.4 3.2z"/><path d="M354.9 286.9c-3.3 2.8-40.1 65.2-39.6 67.1.3 1 7.8 13.6 16.8 27.9 9 14.3 17 27.1 17.7 28.5.6 1.3 2.4 3.7 4 5.3l2.7 2.9 60-.1c33-.1 61.2.2 62.8.6 3.6 1 5.7 3.2 5.7 6.1-.1 2.3-44.1 78.3-47.9 82.5l-1.9 2.3H259.1l-2.6-3.3c-1.5-1.8-4.2-6-6-9.2-1.8-3.3-5.2-9.4-7.5-13.5s-5.5-9.9-7.1-12.9c-2.8-4.9-13-22.9-25.3-44.6-2.8-5-6-10.7-7.1-12.9-1.1-2.1-3.2-4.4-4.6-5-1.9-.8-24.7-1.1-78.9-1H43.7l-1.8 2.3c-1.1 1.3-1.9 2.6-1.9 3 0 .6 7.3 13.2 13.1 22.6 1 1.6 2.5 4.1 3.3 5.5.8 1.4 9.3 15.7 19 31.9C85.1 489 93 502.7 93 503.1c0 .5.5.9 1 .9.6 0 1 .4 1 .9s2.3 4.6 5 9.1c2.8 4.5 5 8.4 5 8.6 0 .3.9 1.7 1.9 3.2 1.1 1.5 16.6 27.4 34.7 57.5 18 30.2 33.3 55.4 34 56.1 1.8 1.9 350.1 2.1 352.6.3C530.3 638 700 355.2 700 353.3c0-1.3-23.4-40-26-43-.5-.7-1-1.5-1-1.8 0-.3-1.7-3.2-3.7-6.3-2.1-3.1-4.4-6.9-5.1-8.3-.8-1.4-2.4-3.9-3.7-5.5l-2.3-2.9-150.7-.1c-135.4 0-150.9.1-152.6 1.5z"/></svg>