<?xml version="1.0" encoding="UTF-8"?>
<svg xmlns="http://www.w3.org/2000/svg" xmlns:xlink="http://www.w3.org/1999/xlink" width="62px" height="70px" viewBox="0 0 62 70" version="1.1">
  <!-- Generator: Sketch 55.2 (78181) - https://sketchapp.com -->
  <title>np_budget_1025961_FDB927</title>
  <desc>Created with Sketch.</desc>
  <g id="SNY-Visual-Design" stroke="none" stroke-width="1" fill="none" fill-rule="evenodd">
    <g id="Home" transform="translate(-694.000000, -3986.000000)" fill="#FDB927" fill-rule="nonzero">
      <g id="np_budget_1025961_FDB927" transform="translate(694.000000, 3986.000000)">
        <path d="M30.9848623,20 C30.1860291,20 29.5014192,20.6882334 29.5014192,21.4911356 L29.5014192,24.3587378 C28.8167363,24.4734434 28.0179761,24.5881489 27.4473705,24.7028545 C23.9098056,25.7351678 21.513452,29.2910768 22.0839845,32.7326106 C22.6545536,37.2061641 27.6755251,39.1561219 30.1862482,40.1882884 L30.5285896,40.302994 C30.8709311,40.4176995 31.0991587,40.5324051 31.4415002,40.6471106 C33.0390936,41.2206384 34.7507644,41.7941662 35.7778253,42.826553 C36.8048861,43.8589397 37.3754187,45.1206641 37.3754187,46.382462 C37.3754187,47.6442598 36.8048496,48.9059843 35.6636749,49.8236287 C34.5225367,50.8559421 32.9249433,51.4295066 30.8708946,51.6589177 C29.3874515,51.7736232 27.5616304,51.5442121 25.3934313,51.2000954 C24.8228622,51.0853899 24.3664435,50.9706843 23.9099882,50.8559788 C23.111155,50.6265676 22.3123947,51.0853899 22.0841671,51.7736232 C21.8559395,52.5765988 22.3123947,53.379501 22.9970777,53.6089122 C23.5676467,53.8383233 24.2523662,53.9530288 24.8228987,54.0677344 C26.5346425,54.4118511 28.0180856,54.5265566 29.3874515,54.6412622 L29.3874515,57.5088644 C29.3874515,58.3118401 30.0721344,59 30.8708946,59 C31.6696548,59 32.2402604,58.3117666 32.2402604,57.5088644 L32.2402604,54.2971088 C34.2943091,53.9529921 36.0059799,53.1500532 37.3753457,52.0029976 C38.9729391,50.5118621 40,48.5618309 40,46.382462 C40,44.2030931 39.0870895,42.2530619 37.489496,40.7619263 C36.0060529,39.2707908 33.9519311,38.582484 32.1261101,37.8943241 C31.7837686,37.7796185 31.555541,37.6649129 31.2131995,37.5502074 L31.0990857,37.4355018 C28.2462768,36.2884462 25.1651672,34.7972373 24.8227892,32.3884573 C24.5945616,30.3237572 26.0780777,28.1443883 28.2462037,27.5708238 C30.5284801,26.8825904 33.4954393,27.2267071 36.3484674,28.2590572 C37.0331503,28.6031738 37.9460608,28.1443516 38.1742885,27.4560815 C38.5166299,26.7678482 38.0601746,25.8502037 37.3754552,25.6207926 C35.7778618,24.9325592 34.066191,24.5884793 32.3544472,24.3589948 L32.3544472,21.4913925 C32.3544472,20.6884169 31.7838781,20 30.9850814,20 L30.9848623,20 Z" id="Path"></path>
        <path d="M32.4003617,9.00649226 L32.4003617,3.07814423 L38.2042342,3.19215092 C39.0168135,3.19215092 39.5971636,2.62211745 39.5971636,1.8240706 C39.5971636,1.02602375 39.0167763,0.342020079 38.2042342,0.342020079 L23.6947386,0 C22.8821593,0 22.3018092,0.570033465 22.3018092,1.36808031 C22.3018092,2.16612717 22.8821965,2.85013084 23.6947386,2.85013084 L29.6147257,2.96413753 L29.6147257,9.00645578 C14.2925023,9.69049593 1.75613769,21.2053543 0.0147902168,36.2542378 C-0.101287233,37.0523211 0.479100017,37.7362883 1.29167931,37.8503315 C2.10425861,37.9643747 2.80064902,37.3943047 2.91676361,36.5962214 C4.42573332,22.4593915 16.4976396,11.8569514 30.8912434,11.8569514 C46.4459931,11.8569514 59.0982495,24.2834986 59.0982495,39.4462063 C59.0982495,54.608914 46.4459931,67.1500151 30.8912434,67.1500151 C22.0693572,67.1500151 13.8276725,63.1597444 8.48848122,56.2053726 C8.02417142,55.6353391 7.09555182,55.4072892 6.39908712,55.9773592 C5.81869987,56.433386 5.58650782,57.3454395 6.16693222,58.0294797 C12.0869193,65.6681105 21.1407376,70 30.8912434,70 C48.070706,70 62,56.3191969 62,39.5600306 C62,23.1430668 48.8834339,9.80446614 32.4000645,9.00623688 L32.4003617,9.00649226 Z" id="Path"></path>
      </g>
    </g>
  </g>
</svg>
