<?xml version="1.0" encoding="UTF-8"?>
<svg xmlns="http://www.w3.org/2000/svg" xmlns:xlink="http://www.w3.org/1999/xlink" width="70px" height="76px" viewBox="0 0 70 76" version="1.1">
  <!-- Generator: Sketch 55.2 (78181) - https://sketchapp.com -->
  <title>np_monthly-calendar_971982_FDB927</title>
  <desc>Created with Sketch.</desc>
  <g id="SNY-Visual-Design" stroke="none" stroke-width="1" fill="none" fill-rule="evenodd">
    <g id="Home" transform="translate(-1076.000000, -3980.000000)" fill="#FDB927" fill-rule="nonzero">
      <g id="np_monthly-calendar_971982_FDB927" transform="translate(1076.000000, 3980.000000)">
        <path d="M62.965,6.059 L62.965,3.1879 C62.965,1.7348 61.7814,0.5551 60.3322,0.5551 L58.1525,0.5551 C56.6994,0.5551 55.5197,1.7387 55.5197,3.1879 L55.5197,6.0004 L38.5467,6.004306 L38.5467,3.191806 C38.5467,1.738706 37.3631,0.559006 35.9139,0.559006 L33.7342,0.559006 C32.2811,0.559006 31.1014,1.742606 31.1014,3.191806 L31.1014,6.004306 L14.1284,6.004306 L14.1284,3.191806 C14.1284,1.738706 12.9487,0.559006 11.4956,0.559006 L9.3159,0.559006 C7.8628,0.559006 6.6831,1.742606 6.6831,3.191806 L6.6831,6.113706 C3.0229,6.707456 0.2769,9.852006 0.2769,13.660606 L0.2769,67.793606 C0.2769,72.016306 3.7105,75.449806 7.9331,75.449806 L62.0661,75.449806 C66.2888,75.449806 69.7223,72.016206 69.7223,67.793606 L69.718394,13.656606 C69.7223,9.742506 66.761394,6.508206 62.964494,6.058906 L62.965,6.059 Z M57.5197,3.1918 C57.5197,2.84024 57.80486,2.55899 58.15251,2.55899 L60.33221,2.55899 C60.68377,2.55899 60.96502,2.84415 60.96502,3.1918 L60.96502,10.8168 C60.96502,11.16836 60.67986,11.44961 60.33221,11.44961 L58.15251,11.44961 C57.80095,11.44961 57.5197,11.16445 57.5197,10.8168 L57.5197,3.1918 Z M33.1017,3.1918 C33.1017,2.84024 33.38686,2.55899 33.73451,2.55899 L35.91421,2.55899 C36.26577,2.55899 36.54702,2.84415 36.54702,3.1918 L36.54702,10.8168 C36.54702,11.16836 36.26186,11.44961 35.91421,11.44961 L33.73451,11.44961 C33.38295,11.44961 33.1017,11.16445 33.1017,10.8168 L33.1017,3.1918 Z M8.6837,3.1918 C8.6837,2.84024 8.96886,2.55899 9.31651,2.55899 L11.49621,2.55899 C11.84387,2.55899 12.12902,2.84415 12.12902,3.1918 L12.12902,10.8168 C12.12902,11.16836 11.84386,11.44961 11.49621,11.44961 L9.31651,11.44961 C8.96495,11.44961 8.6837,11.16445 8.6837,10.8168 L8.6837,3.1918 Z M6.6837,8.1449 L6.6837,10.8129 C6.6837,12.266 7.8673,13.4457 9.3165,13.4457 L11.4962,13.4457 C12.9493,13.4457 14.129,12.2621 14.129,10.8129 L14.129,8.0004 L31.102,8.0004 L31.102,10.8129 C31.102,12.266 32.2856,13.4457 33.7348,13.4457 L35.9145,13.4457 C37.3676,13.4457 38.5473,12.2621 38.5473,10.8129 L38.5473,8.0004 L55.5203,8.0004 L55.5203,10.8129 C55.5203,12.266 56.7039,13.4457 58.1531,13.4457 L60.3328,13.4457 C61.7859,13.4457 62.9656,12.2621 62.9656,10.8129 L62.9656,8.0785 C65.657,8.51209 67.7234,10.8441 67.7234,13.6566 L67.7234,23.3871 L2.2784,23.391006 L2.2784,13.660506 C2.2784,10.957406 4.1456,8.715206 6.6846,8.144906 L6.6837,8.1449 Z M62.0667,73.4459 L7.9337,73.4459 C4.8165,73.4459 2.2775,70.9107 2.2775,67.7897 L2.281406,25.3917 L67.722406,25.3917 L67.722406,67.7897 C67.722406,70.9069 65.183306,73.4459 62.066206,73.4459 L62.0667,73.4459 Z" id="Shape"></path>
        <path d="M7.934,67.699 L62.067,67.699 L62.067,31.519 L7.934,31.519 L7.934,67.699 Z M9.934,56.308 L20.965,56.308 L20.965,65.7025 L9.934,65.698594 L9.934,56.308 Z M47.032,54.308 L36.001,54.308 L36.001,44.9135 L47.032,44.9135 L47.032,54.308 Z M49.032,44.9135 L60.063,44.9135 L60.063,54.308 L49.032,54.308 L49.032,44.9135 Z M36.001,56.3085 L47.032,56.3085 L47.032,65.703 L36.001,65.699094 L36.001,56.3085 Z M34.001,65.6991 L22.97,65.6991 L22.97,56.3046 L34.001,56.308506 L34.001,65.6991 Z M36.001,42.9141 L36.001,33.5196 L47.032,33.5196 L47.032,42.9141 L36.001,42.9141 Z M34.001,42.9141 L22.97,42.9141 L22.97,33.5196 L34.001,33.5196 L34.001,42.9141 Z M34.001,44.9141 L34.001,54.3086 L22.97,54.3086 L22.97,44.9141 L34.001,44.9141 Z M20.97,54.3086 L9.935,54.3086 L9.935,44.9141 L20.966,44.9141 L20.97,54.3086 Z M49.032,65.6996 L49.032,56.3051 L60.063,56.3051 L60.063,65.6996 L49.032,65.6996 Z M60.067,42.9146 L49.032,42.9146 L49.032,33.5201 L60.063,33.5201 L60.067,42.9146 Z M20.969,33.5201 L20.969,42.9146 L9.934,42.9146 L9.934,33.5201 L20.969,33.5201 Z" id="Shape"></path>
      </g>
    </g>
  </g>
</svg>
