<?xml version="1.0" encoding="UTF-8"?>
<svg xmlns="http://www.w3.org/2000/svg" xmlns:xlink="http://www.w3.org/1999/xlink" width="54px" height="78px" viewBox="0 0 54 78" version="1.1">
  <!-- Generator: Sketch 55.2 (78181) - https://sketchapp.com -->
  <title>np_checklist_1402113_FDB927</title>
  <desc>Created with Sketch.</desc>
  <g id="SNY-Visual-Design" stroke="none" stroke-width="1" fill="none" fill-rule="evenodd">
    <g id="Home" transform="translate(-304.000000, -4481.000000)" fill="#FDB927" fill-rule="nonzero">
      <g id="np_checklist_1402113_FDB927" transform="translate(304.000000, 4481.000000)">
        <path d="M43.4343144,10.6366154 L50.4710283,10.6366154 C52.4231314,10.6366154 54,12.2179078 54,14.1892778 L54,74.4473376 C54,76.4095036 52.4201097,78 50.47405,78 L3.52594999,78 C1.57384684,78 0,76.4187076 0,74.4473376 L0,14.1892778 C0,12.2240698 1.57074765,10.6366154 3.5289717,10.6366154 L10.5656856,10.6366154 L10.5656856,8.27228173 C10.5656856,6.31315769 12.1334116,4.72874527 14.0855922,4.72874527 L20.2869966,4.72874527 C20.5260915,4.14983765 20.8741461,3.49478651 21.3644305,2.83662316 C22.6749235,1.07858292 24.5483847,0 26.999845,0 C29.4513054,0 31.3247666,1.07858292 32.6352596,2.83662316 C33.1255594,3.49474751 33.4735909,4.14982985 33.7126935,4.72874527 L39.9140979,4.72874527 C41.8631793,4.72874527 43.4340044,6.30699569 43.4340044,8.27228173 L43.4343144,10.6366154 Z M12.9111381,8.27228173 L12.9111381,15.3654386 C12.9111381,16.0144214 13.437776,16.5445635 14.0824155,16.5445635 L39.9172745,16.5445635 C40.5619296,16.5445635 41.0885364,16.0174556 41.0885364,15.3654386 L41.0885364,8.27228173 C41.0885364,7.61415739 40.5649436,7.09011491 39.9142528,7.09011491 L32.8683963,7.09011491 C32.3296716,7.09011491 31.8605393,6.72144048 31.7303732,6.19436381 C31.7061608,6.1029557 31.6426041,5.8988143 31.5306226,5.62459778 C31.3338937,5.15538144 31.079667,4.68618071 30.7558248,4.25351515 C29.8660469,3.05918034 28.658447,2.36443504 26.9998373,2.36443504 C25.3412276,2.36443504 24.1337051,3.05911794 23.2438498,4.25351515 C22.9200076,4.68617291 22.6657809,5.15535024 22.469052,5.62459778 C22.3570705,5.8988143 22.2935138,6.1029557 22.2693014,6.19436381 C22.1391586,6.72147168 21.6700417,7.09011491 21.1312783,7.09011491 L14.0854217,7.09011491 C13.4316861,7.09011491 12.9111381,7.61722278 12.9111381,8.27228173 L12.9111381,8.27228173 Z M10.5656082,13.001027 L3.52889422,13.001027 C2.86910738,13.001027 2.3485672,13.5281349 2.3485672,14.1892778 L2.3485672,74.4473376 C2.3485672,75.1115537 2.86913837,75.6355884 3.52587251,75.6355884 L50.4739725,75.6355884 C51.1246787,75.6355884 51.6512778,75.1023887 51.6512778,74.4473376 L51.6512778,14.1892778 C51.6512778,13.5250617 51.1307067,13.001027 50.4709508,13.001027 L43.4342369,13.001027 L43.4342369,15.3653606 C43.4342369,17.3214427 41.8604675,18.9088971 39.917352,18.9088971 L14.082493,18.9088971 C12.1424767,18.9088971 10.5656082,17.3184007 10.5656082,15.3653606 L10.5656082,13.001027 Z M42.2563892,59.0911809 C42.9040737,59.0911809 43.4276511,59.6213386 43.4276511,60.2733477 C43.4276511,60.9253803 42.9040582,61.4555145 42.2563892,61.4555145 L27.0052686,61.4555145 C26.3575841,61.4555145 25.830985,60.9253569 25.830985,60.2733477 C25.830985,59.6213152 26.3576074,59.0911809 27.0052686,59.0911809 L42.2563892,59.0911809 Z M42.2503365,30.7280693 C42.898021,30.7280693 43.4215984,31.2582269 43.4215984,31.9102361 C43.4215984,32.5622686 42.8980055,33.0924029 42.2503365,33.0924029 L26.9992159,33.0924029 C26.3515314,33.0924029 25.8249323,32.5622452 25.8249323,31.9102361 C25.8249323,31.2582035 26.3515546,30.7280693 26.9992159,30.7280693 L42.2503365,30.7280693 Z M42.2563892,44.9084551 C42.9040737,44.9084551 43.4276511,45.4386128 43.4276511,46.0906219 C43.4276511,46.7426545 42.9040582,47.2727887 42.2563892,47.2727887 L27.0052686,47.2727887 C26.3575841,47.2727887 25.830985,46.7426311 25.830985,46.0906219 C25.830985,45.4385894 26.3576074,44.9084551 27.0052686,44.9084551 L42.2563892,44.9084551 Z M12.5692354,31.0728289 L14.0855147,32.6023294 L17.9534605,28.7114593 C18.4104672,28.2483348 19.155017,28.2483348 19.6119927,28.7114593 C20.0720289,29.171534 20.0720289,29.9210821 19.6119927,30.3811256 L14.9178026,35.1098709 C14.4577663,35.5699456 13.7162461,35.5699456 13.2562486,35.1098709 L10.9076814,32.7455373 C10.4506746,32.2854625 10.4506746,31.5359145 10.9076814,31.0728289 C11.3677176,30.6127542 12.1092379,30.6127542 12.5692354,31.0728289 L12.5692354,31.0728289 Z M12.5692354,45.2563347 L14.0855147,46.7827932 L17.9534605,42.8919231 C18.4104672,42.4318484 19.155017,42.4318484 19.6119927,42.8919231 C20.0720289,43.3550476 20.0720289,44.1015459 19.6119927,44.5646314 L14.9178026,49.2903347 C14.4577663,49.7534592 13.7162461,49.7534592 13.2562486,49.2903347 L10.9076814,46.9290431 C10.4506746,46.4659185 10.4506746,45.7163783 10.9076814,45.2563347 C11.3677176,44.79626 12.1092379,44.79626 12.5692354,45.2563347 L12.5692354,45.2563347 Z M12.5692354,59.4398406 L14.0855147,60.966299 L17.9534605,57.0754289 C18.4104672,56.6123044 19.155017,56.6123044 19.6119927,57.0754289 C20.0720289,57.5355037 20.0720289,58.2850517 19.6119927,58.7450953 L14.9178026,63.4738405 C14.4577663,63.9339153 13.7162461,63.9339153 13.2562486,63.4738405 L10.9076814,61.1095069 C10.4506746,60.6494322 10.4506746,59.8998841 10.9076814,59.4398406 C11.3677176,58.976716 12.1092379,58.976716 12.5692354,59.4398406 L12.5692354,59.4398406 Z" id="Shape"></path>
      </g>
    </g>
  </g>
</svg>
