<?xml version="1.0" encoding="UTF-8"?>
<svg xmlns="http://www.w3.org/2000/svg" xmlns:xlink="http://www.w3.org/1999/xlink" width="70px" height="72px" viewBox="0 0 70 72" version="1.1">
  <!-- Generator: Sketch 55.2 (78181) - https://sketchapp.com -->
  <title>np_cog_1208903_FDB927</title>
  <desc>Created with Sketch.</desc>
  <g id="SNY-Visual-Design" stroke="none" stroke-width="1" fill="none" fill-rule="evenodd">
    <g id="Capabilities" transform="translate(-685.000000, -760.000000)" stroke="#FDB927" stroke-width="2">
      <g id="Group-6" transform="translate(152.000000, 690.000000)">
        <g id="np_cog_1208903_FDB927" transform="translate(534.000000, 71.000000)">
          <path d="M8.50906303,58.6282202 C7.88413126,58.9682622 7.08781352,58.7432369 6.73508148,58.1381535 L0.178445662,46.8565459 C-0.174337986,46.2464621 0.0423716008,45.4512896 0.637061824,45.0863096 L6.46294626,41.5458371 C7.06771269,41.1757876 7.56160206,40.3106659 7.56160206,39.5956072 L7.55656266,30.3992887 C7.55656266,29.6941898 7.05259708,28.8140388 6.45790686,28.4490588 L0.632022426,24.9085863 C0.0222114294,24.5385368 -0.179377383,23.7434155 0.173406264,23.13835 L6.73507374,11.8617351 C7.08785738,11.2566441 7.89421263,11.0416246 8.50905529,11.3716685 L14.5113057,14.6070735 C15.1362375,14.9421229 16.1391112,14.9321246 16.7640688,14.5770699 L24.7923997,9.98147101 C25.4072423,9.62642521 25.9263416,8.75629802 25.9414495,8.06619008 L26.122873,1.29018449 C26.1430318,0.580080102 26.732684,0.0100020653 27.4381996,0.0100020653 L40.5617926,0 C41.267347,0 41.8569927,0.585081774 41.8771193,1.28018243 L42.0585428,8.05618801 C42.073661,8.7662924 42.5826737,9.62146706 43.2075926,9.97646165 L51.2359235,14.5771813 C51.8507661,14.9322271 52.8687606,14.9372326 53.4886865,14.6071849 L59.490937,11.3717798 C60.1158687,11.0317378 60.9121865,11.2567631 61.2649185,11.8618465 L67.8215543,23.1434541 C68.174338,23.7535379 67.9576284,24.5487104 67.3629382,24.9136904 L61.5370537,28.4541629 C60.9322873,28.8242124 60.4383979,29.6893341 60.4383979,30.4043928 L60.4434373,39.6007113 C60.4434373,40.3058102 60.9474029,41.1859612 61.5420931,41.5509412 L67.3679776,45.0914137 C67.9777886,45.4614632 68.1793774,46.2565845 67.8265937,46.86165 L61.2649263,58.1382649 C60.9121426,58.7433559 60.1057874,58.9583754 59.4909447,58.6283315 L53.4886943,55.3929265 C52.8637625,55.0578771 51.8608888,55.0678754 51.2359312,55.4229301 L43.2076003,60.018529 C42.5927577,60.3735748 42.0736584,61.243702 42.0585505,61.9338099 L41.877127,68.7098155 C41.8569682,69.4199199 41.267316,69.9899979 40.5618004,69.9899979 L27.4382074,70 C26.732653,70 26.1430073,69.4149182 26.1228807,68.7198176 L25.9414572,61.943812 C25.926339,61.2337076 25.4173263,60.3785329 24.7924074,60.0235383 L16.7640765,55.4228187 C16.1492339,55.0677729 15.1312394,55.0627674 14.5113135,55.3928151 L8.50906303,58.6282202 Z M26.2591999,48.3017566 C33.6625732,52.5473536 43.1320222,50.0270585 47.4063502,42.6809877 C51.6850646,35.3349168 49.1451101,25.9387619 41.7417368,21.6975175 C34.3383634,17.4519205 24.8689144,19.9722157 20.5945865,27.3182865 C16.315872,34.6643573 18.8558266,44.0605122 26.2591999,48.3017566 Z" id="Shape"></path>
        </g>
      </g>
    </g>
  </g>
</svg>
