<?xml version="1.0" encoding="UTF-8"?>
<svg xmlns="http://www.w3.org/2000/svg" xmlns:xlink="http://www.w3.org/1999/xlink" width="92px" height="72px" viewBox="0 0 92 72" version="1.1">
  <!-- Generator: Sketch 55.2 (78181) - https://sketchapp.com -->
  <title>np_construction-hat_2023336_FDB927</title>
  <desc>Created with Sketch.</desc>
  <g id="SNY-Visual-Design" stroke="none" stroke-width="1" fill="none" fill-rule="evenodd">
    <g id="Capabilities" transform="translate(-1070.000000, -760.000000)" fill="#FDB927" fill-rule="nonzero">
      <g id="Group-6" transform="translate(152.000000, 690.000000)">
        <g id="np_construction-hat_2023336_FDB927" transform="translate(918.000000, 70.000000)">
          <path d="M89.672,30.797 L89.672,36.3361 L90.64856,35.35954 L88.74236,35.35954 L83.55486,35.35954 L75.87906,35.35954 L66.51186,35.35954 L56.25786,35.35954 L45.90586,35.35954 L36.25746,35.35954 L28.10126,35.35954 L22.24186,35.35954 C21.32389,35.35954 20.38636,35.300946 19.46846,35.35954 L19.35127,35.35954 L20.32783,36.3361 L20.32783,30.797 L19.35127,31.77356 L26.80437,31.77356 C27.37078,31.77356 27.72234,31.32434 27.78093,30.797 C27.788742,30.750125 27.788742,30.699344 27.800461,30.66028 C27.808274,30.601686 27.819992,30.54309 27.819992,30.49622 C27.800461,30.65247 27.788742,30.7306 27.819992,30.49622 C27.898118,29.98841 27.976242,29.47282 28.073902,28.96502 C28.405932,27.20722 28.835622,25.47672 29.363002,23.76972 C30.855202,18.90642 33.152102,14.14082 36.589602,10.30072 C38.874802,7.76162 41.558402,5.73822 44.695102,4.35542 C44.206822,4.07417 43.718542,3.78901 43.230302,3.51558 L43.230302,10.77338 C43.230302,13.22648 43.191239,15.67568 43.230302,18.12498 C43.277177,21.29688 46.503702,23.69138 49.550602,22.53908 C51.492002,21.79689 52.636502,19.98048 52.636502,17.92968 L52.636502,9.71878 L52.636502,4.64848 C52.636502,3.67973 52.683377,2.70708 52.636502,1.73828 L52.636502,1.58984 C52.316192,1.91015 51.980252,2.24609 51.659942,2.5664 C53.800542,2.35156 55.976342,2.33202 58.105242,2.624994 C57.870862,2.312494 57.624772,1.999994 57.394302,1.687494 L57.394302,8.406294 L57.394302,17.449294 L57.394302,18.121174 C57.413833,19.332074 57.855242,20.472774 58.683402,21.363374 C60.773202,23.597774 64.550602,23.152474 66.124802,20.543064 C66.827922,19.390764 66.788862,18.140764 66.788862,16.859464 L66.788862,12.367264 L66.788862,7.164164 C66.788862,6.101664 66.827925,5.023564 66.788862,3.968864 L66.788862,3.804804 C66.300582,4.086054 65.812302,4.371214 65.324062,4.644644 C66.800662,5.289174 68.214662,6.058744 69.550662,6.957144 C70.324102,7.472764 70.898362,7.902454 71.523362,8.421944 C72.257732,9.027414 72.949162,9.664144 73.601462,10.336044 C76.648362,13.453244 78.894462,17.328244 80.390562,21.469044 C81.503862,24.574544 82.234362,27.808844 82.695262,31.070644 C82.753856,31.492524 83.249952,31.781584 83.632762,31.781584 L90.656162,31.781584 C91.913962,31.781584 91.913962,29.828484 90.656162,29.828484 L83.632762,29.828484 C83.945262,30.062864 84.257762,30.308954 84.570262,30.539424 C83.796822,25.051124 82.246062,19.594424 79.421862,14.785424 C77.332062,11.222924 74.546862,8.097924 71.179662,5.691624 C69.656262,4.605724 68.015562,3.679924 66.304662,2.926024 C65.648412,2.644774 64.839862,2.965087 64.839862,3.765864 L64.839862,10.543164 C64.839862,13.043164 64.859393,15.543164 64.839862,18.035364 C64.82033,20.125164 62.566462,21.558764 60.707062,20.465064 C59.859402,19.968974 59.359362,19.066664 59.347662,18.090064 L59.347662,17.574444 L59.347662,9.195544 C59.347662,6.726744 59.417975,4.242444 59.347662,1.781444 L59.347662,1.656444 C59.347662,1.273634 59.042972,0.765824 58.636722,0.718944 C56.312522,0.398634 54.007822,0.359564 51.675822,0.593944 C51.148482,0.640819 50.699262,0.992384 50.699262,1.570504 L50.699262,7.910304 L50.699262,17.011904 C50.699262,17.922064 50.769574,18.789204 50.261762,19.597804 C48.953162,21.668104 45.652362,20.965004 45.242262,18.550904 C45.117262,17.800904 45.211012,16.968904 45.211012,16.215004 L45.211012,11.613404 C45.211012,8.957204 45.269605,6.293104 45.211012,3.636804 L45.211012,3.480554 C45.211012,2.679774 44.398512,2.347754 43.746212,2.640714 C38.121212,5.132914 33.804812,9.769614 30.887212,15.109714 C28.719212,19.094114 27.203612,23.461314 26.324712,27.902714 C26.137212,28.848024 25.965332,29.816814 25.863772,30.773814 L26.840332,29.797254 L19.387232,29.797254 C18.859892,29.797254 18.410672,30.246474 18.410672,30.773814 L18.410672,36.312914 C18.410672,36.840254 18.859892,37.289474 19.387232,37.289474 L21.293432,37.289474 L26.480932,37.289474 L34.156732,37.289474 L43.523932,37.289474 L53.777932,37.289474 L64.129932,37.289474 L73.778332,37.289474 L81.934532,37.289474 L87.793932,37.289474 C88.723622,37.289474 89.649432,37.309006 90.567332,37.289474 L90.684522,37.289474 C91.211862,37.289474 91.661082,36.840254 91.661082,36.312914 L91.661082,30.773814 C91.625926,29.547214 89.672782,29.535514 89.672782,30.797251 L89.672,30.797 Z" id="Path"></path>
          <path d="M67.961,69.641 C67.26569,69.46522 66.5626,69.28162 65.8712,69.10194 C63.9884,68.62147 62.1017,68.13319 60.215,67.65664 C57.4884,66.96133 54.7775,66.25824 52.0509,65.56684 C48.8165,64.73872 45.5743,63.90664 42.3439,63.07464 C38.9259,62.19573 35.5001,61.31684 32.0779,60.44964 C28.7849,59.6098 25.4959,58.76214 22.2029,57.91844 C19.4099,57.2075 16.6091,56.48094 13.8123,55.77004 C11.8201,55.26223 9.8279,54.74664 7.8357,54.23884 C6.99586,54.024 6.0896,53.87946 5.2654,53.58259 C5.257587,53.58259 5.245869,53.58259 5.23415,53.574778 C5.35134,53.621653 5.187275,53.535715 5.136494,53.496653 C4.570084,53.125563 3.995894,52.813063 3.488094,52.356053 C3.097474,51.996673 2.831844,51.711523 2.597474,51.281853 C2.566224,51.223259 2.460754,51.008413 2.480284,51.059193 C2.511534,51.129505 2.433409,50.922473 2.42169,50.883413 C2.39044,50.785757 2.374815,50.688103 2.343565,50.590443 C2.343565,50.570911 2.312315,50.434193 2.335753,50.55138 C2.355284,50.6881 2.32794,50.442 2.32794,50.43419 C2.32794,50.356065 2.320127,50.27794 2.320127,50.192 C2.320127,50.152938 2.339659,49.8795 2.32794,50.0045 C2.320127,50.1295 2.347471,49.906844 2.35919,49.86778 C2.378721,49.770123 2.406065,49.67247 2.437315,49.56309 C2.456846,49.492778 2.48419,49.41465 2.51544,49.34825 C2.593565,49.11387 2.476377,49.418563 2.54669,49.270125 C2.624815,49.113875 2.70294,48.957625 2.8006,48.809185 C2.878725,48.672465 2.97638,48.543565 3.06622,48.418565 C3.124814,48.332627 3.027158,48.46544 3.019345,48.477158 C3.050595,48.438096 3.077939,48.399034 3.105283,48.367788 C3.152158,48.309194 3.202939,48.250598 3.261533,48.180288 C3.449033,47.965448 3.652153,47.770128 3.855283,47.574818 C3.933408,47.504505 4.011533,47.438098 4.089663,47.371698 C4.136538,47.332635 4.363103,47.149038 4.199043,47.28576 C4.042793,47.41076 4.230293,47.266229 4.28498,47.227166 C4.03107,47.258416 3.78889,47.297479 3.53498,47.324823 C4.12092,47.442013 4.70688,47.567013 5.29278,47.684203 C6.88658,48.016233 8.48808,48.348263 10.07798,48.680293 C12.45298,49.168573 14.82408,49.664663 17.20688,50.156893 C20.08968,50.750643 22.98028,51.359993 25.85918,51.953793 C29.02328,52.610043 32.17948,53.262393 35.34358,53.918593 C38.53888,54.582653 41.71858,55.246693 44.91388,55.902993 C47.90218,56.520183 50.89048,57.145193 53.87868,57.758493 C56.38648,58.274123 58.90988,58.805393 61.41778,59.320993 C63.22248,59.692083 65.03108,60.070993 66.84748,60.445993 C67.69514,60.621773 68.56628,60.856153 69.42558,60.985053 C69.464643,60.992866 69.503705,61.004584 69.54277,61.004584 C69.464645,60.410834 69.38652,59.813184 69.30839,59.215484 C66.82789,60.680284 63.61309,63.004584 63.73029,66.266284 C63.800602,68.070984 64.89439,69.645184 66.26149,70.750684 C66.55446,70.985064 66.86696,71.258494 67.2068,71.434274 C67.63649,71.656934 68.2224,71.570994 68.6912,71.53193 C69.11308,71.492868 69.53104,71.445992 69.949,71.36787 C70.61306,71.24287 71.2693,71.01631 71.8709,70.71162 C73.8123,69.73506 74.7693,67.74282 74.8475,65.63352 C74.894375,64.37572 74.69125,63.00852 74.24203,61.82492 C74.21078,62.07883 74.171717,62.32101 74.144373,62.57492 C75.636573,60.52412 77.120973,58.47332 78.617073,56.42262 C78.831913,56.12965 79.038943,55.8445 79.249883,55.55543 C79.730353,54.89918 79.062383,54.14133 78.410043,54.09063 C71.046743,53.48516 63.715043,52.50863 56.437043,51.23903 C49.835443,50.08673 43.265043,48.69213 36.757043,47.09063 C31.413243,45.78203 26.101043,44.32503 20.839043,42.74683 C17.167143,41.64523 13.507043,40.47343 9.882043,39.21163 C8.827343,38.84054 7.772643,38.46944 6.717943,38.08663 C6.249193,37.91085 5.780443,37.70382 5.303843,37.55929 C5.284311,37.551477 5.26478,37.539758 5.245249,37.539758 C4.678839,37.317098 3.964049,37.891318 4.003049,38.477258 C4.178829,40.918658 4.354609,43.360058 4.530389,45.809258 C4.561639,46.160818 4.577264,46.520198 4.608514,46.871758 C4.647577,47.399098 5.030394,47.848318 5.585074,47.848318 C6.081164,47.848318 6.600674,47.399098 6.561634,46.871758 C6.385854,44.430358 6.210074,41.988958 6.034294,39.539758 C6.003044,39.188198 5.987419,38.828818 5.956169,38.477258 C5.546009,38.789758 5.135859,39.102258 4.713969,39.414758 C5.956169,39.895228 7.206169,40.344448 8.452269,40.781958 C11.850669,41.985058 15.280369,43.094458 18.725269,44.149158 C23.842469,45.723358 29.006269,47.164758 34.194269,48.477258 C40.620069,50.098358 47.092269,51.524158 53.608269,52.715558 C60.873869,54.043658 68.190269,55.098358 75.542269,55.801458 C76.487579,55.887396 77.448469,55.977238 78.393869,56.055368 C78.112619,55.567088 77.827459,55.078808 77.554029,54.590568 C76.804029,55.625768 76.038429,56.668668 75.288429,57.707768 C74.370459,58.965568 73.374329,60.207768 72.522829,61.504668 C72.093139,62.168728 72.600953,63.098468 72.737669,63.809368 C72.768919,63.946088 72.784544,64.082808 72.807982,64.219528 C72.815794,64.28984 72.847044,64.563278 72.815794,64.250778 C72.823607,64.328903 72.835326,64.414838 72.847044,64.492968 C72.886107,64.836718 72.893919,65.176558 72.893919,65.516368 C72.893919,65.672618 72.886107,65.828868 72.874388,65.985118 C72.866576,66.071055 72.854857,66.160898 72.843138,66.258558 C72.874388,66.035898 72.843138,66.239027 72.823607,66.336684 C72.753294,66.696054 72.659547,67.059344 72.518917,67.399184 C72.597042,67.196054 72.511105,67.406996 72.472042,67.485121 C72.425167,67.582777 72.374386,67.672621 72.315792,67.766371 C72.257198,67.864027 72.198602,67.942151 72.140012,68.039811 C72.061887,68.157001 72.225949,67.953874 72.069699,68.125749 C71.913449,68.301529 71.757199,68.457779 71.581419,68.606219 C71.550169,68.637469 71.432979,68.723409 71.589232,68.606219 C71.530638,68.645281 71.479852,68.684344 71.425172,68.723409 C71.339235,68.782003 71.237672,68.848409 71.143922,68.899189 C71.026732,68.969501 70.909542,69.024189 70.792362,69.086689 C70.733768,69.117939 70.682982,69.133563 70.628302,69.164813 C70.753302,69.10622 70.62049,69.172626 70.55799,69.196063 C70.28455,69.29372 70.01111,69.383563 69.73768,69.438253 C69.05409,69.594503 68.42908,69.641373 67.68688,69.641373 C67.85094,69.688248 68.01891,69.72731 68.17516,69.778093 C68.104848,69.73903 68.05016,69.699968 67.97985,69.660903 C67.909537,69.614028 67.84313,69.574966 67.77673,69.524183 C67.66735,69.446057 67.4447,69.250743 67.66735,69.446057 C67.45251,69.250747 67.21813,69.074967 67.0111,68.867937 C66.90172,68.758557 66.78844,68.645277 66.69079,68.524187 C66.632196,68.465593 66.58141,68.399187 66.53454,68.336687 C66.34704,68.121847 66.554072,68.375749 66.475946,68.258561 C66.261106,67.953871 66.065786,67.641371 65.897826,67.301531 C65.827513,67.153091 65.956419,67.477311 65.866576,67.223406 C65.835326,67.137469 65.807982,67.047626 65.780638,66.957786 C65.749388,66.871849 65.733763,66.782006 65.710326,66.692166 C65.702513,66.633572 65.651732,66.340606 65.671263,66.477326 C65.690794,66.625766 65.66345,66.321076 65.66345,66.282016 L65.66345,65.989046 C65.66345,65.949984 65.6947,65.645296 65.671263,65.774206 C65.66345,65.883576 65.710326,65.578896 65.729857,65.520296 C65.761107,65.410916 65.78845,65.305456 65.815794,65.199986 C65.823607,65.160923 65.952514,64.848426 65.874388,65.024206 C65.991578,64.758576 66.128298,64.508576 66.284548,64.262486 C67.182988,62.875786 68.792348,61.781986 70.261148,60.914786 C70.944738,60.516346 70.878338,59.305386 70.026768,59.125686 C69.382238,58.988966 68.737668,58.860066 68.093168,58.727246 C66.335368,58.367876 64.585368,58.004586 62.827568,57.633446 C60.268968,57.106106 57.702568,56.570946 55.140068,56.039646 C52.046268,55.395116 48.948668,54.758446 45.850968,54.117746 C42.491568,53.422436 39.132168,52.719346 35.772968,52.027946 C32.460468,51.344356 29.151868,50.652946 25.843268,49.965446 C22.854968,49.340446 19.858868,48.723246 16.866668,48.098246 C14.464368,47.602156 12.061968,47.102156 9.659668,46.606046 C8.155768,46.293546 6.651868,45.981046 5.147968,45.668546 C4.815938,45.598233 4.483908,45.520106 4.151878,45.465426 C3.487818,45.340426 3.116678,45.613866 2.636278,46.020116 C1.651898,46.848236 0.769078,47.973216 0.456578,49.231016 C-0.070762,51.371616 1.218298,53.156816 2.858878,54.379416 C3.503408,54.859886 4.194778,55.336446 4.976078,55.543516 C5.397958,55.652896 5.815918,55.758356 6.233878,55.863826 C7.913578,56.293516 9.593278,56.723206 11.272978,57.152926 C13.792478,57.797456 16.319878,58.442026 18.843278,59.094326 C21.909678,59.883386 24.983878,60.668526 28.054178,61.457626 C31.382278,62.305286 34.714378,63.168526 38.046378,64.016226 C41.296378,64.844346 44.550278,65.688126 47.804178,66.516226 C50.694778,67.258416 53.585378,68.000626 56.468278,68.735026 C58.694878,69.301436 60.921378,69.875626 63.155778,70.445926 C64.397978,70.766236 65.647978,71.078736 66.886278,71.402956 C67.050338,71.442018 67.206588,71.488893 67.374558,71.527956 C68.655758,71.828736 69.171458,69.953756 67.960498,69.641256 L67.961,69.641 Z" id="Path"></path>
          <path d="M67.133,63.195 C67.179876,63.124688 67.230657,63.05828 67.28144,62.99188 C67.39082,62.84344 67.39863,62.83563 67.320502,62.945004 C67.390815,62.859067 67.468942,62.769224 67.535342,62.679384 C67.730652,62.445004 67.945502,62.230164 68.168152,62.023134 C68.285342,61.913754 68.402532,61.820004 68.519712,61.718444 C68.566587,61.679382 68.566587,61.679382 68.500181,61.737975 C68.539243,61.706725 68.570493,61.6911 68.609561,61.65985 C68.687686,61.612975 68.758001,61.562194 68.832221,61.51141 C68.968941,61.425472 69.113471,61.34735 69.261911,61.26922 C69.515821,61.14422 69.097851,61.327814 69.359567,61.222345 C69.445504,61.191095 69.535347,61.163751 69.625187,61.136408 C69.711125,61.105158 69.800967,61.089533 69.890807,61.066095 C70.093927,61.027033 69.765807,61.066095 70.000187,61.058283 C70.125187,61.05047 70.422067,61.058283 70.437687,61.058283 C70.718937,61.097345 71.043157,61.234063 71.375187,61.456723 C71.804877,61.749693 72.164247,62.159843 72.476787,62.570023 C72.789287,62.991903 73.324447,63.202833 73.812687,62.921583 C74.234567,62.679393 74.476747,62.011423 74.164247,61.585683 C73.390807,60.538783 72.425947,59.546583 71.125147,59.210683 C70.109547,58.956773 69.074347,59.152089 68.156347,59.640373 C67.070447,60.218493 66.117247,61.195073 65.453247,62.218473 C64.757937,63.265373 66.449337,64.249673 67.132947,63.195033 L67.133,63.195 Z" id="Path"></path>
          <path d="M32.641,60.883 C32.48475,60.64863 32.36756,60.38691 32.24256,60.12128 C32.35975,60.37519 32.21131,60.043155 32.172247,59.9455 C32.113653,59.78925 32.062867,59.62519 32.015997,59.45722 C31.976934,59.30097 31.937872,59.14472 31.898807,58.98847 C31.879275,58.87909 31.859744,58.76581 31.840213,58.65644 C31.871463,58.83222 31.840213,58.62519 31.8324,58.570502 C31.754275,57.640812 31.812869,56.988502 32.18396,56.129102 C32.62146,55.113502 33.51206,54.156402 34.44176,53.472902 C34.86364,53.160402 35.07457,52.625242 34.79332,52.137002 C34.55113,51.715122 33.88316,51.472942 33.45742,51.785442 C31.32852,53.367442 29.68792,55.633142 29.86362,58.387042 C29.941745,59.578442 30.27378,60.867542 30.94952,61.875342 C31.64483,62.914442 33.33622,61.937842 32.64092,60.883152 L32.641,60.883 Z" id="Path"></path>
        </g>
      </g>
    </g>
  </g>
</svg>
