<?xml version="1.0" encoding="UTF-8"?>
<svg xmlns="http://www.w3.org/2000/svg" xmlns:xlink="http://www.w3.org/1999/xlink" width="58px" height="78px" viewBox="0 0 58 78" version="1.1">
  <!-- Generator: Sketch 55.2 (78181) - https://sketchapp.com -->
  <title>np_conclusion_2746903_FDB927</title>
  <desc>Created with Sketch.</desc>
  <g id="SNY-Visual-Design" stroke="none" stroke-width="1" fill="none" fill-rule="evenodd">
    <g id="Capabilities" transform="translate(-307.000000, -757.000000)" fill="#FDB927" fill-rule="nonzero">
      <g id="Group-6" transform="translate(152.000000, 690.000000)">
        <g id="np_conclusion_2746903_FDB927" transform="translate(155.000000, 67.000000)">
          <path d="M56.5,0.5 L46.5,0.5 C45.94922,0.5 45.5,0.94531 45.5,1.5 L45.5,66.5 C45.5,66.65234 45.539062,66.79297 45.597656,66.91797 C45.601562,66.925782 45.601562,66.937501 45.605469,66.945313 L49.882769,75.500013 L1.499769,75.500013 C0.948989,75.500013 0.499769,75.945323 0.499769,76.500013 C0.499769,77.054703 0.948989,77.500013 1.499769,77.500013 L51.499769,77.500013 C51.620859,77.500013 51.738049,77.468763 51.847429,77.429701 C51.878679,77.417982 51.906023,77.406263 51.933367,77.390638 C52.019304,77.347669 52.097427,77.296888 52.163837,77.234388 C52.179463,77.218763 52.198994,77.207044 52.214619,77.191419 C52.284931,77.121107 52.347429,77.039079 52.394309,76.945329 L57.394309,66.945329 C57.398216,66.937517 57.398216,66.925798 57.402122,66.917986 C57.460716,66.792986 57.499769,66.652366 57.499769,66.500016 L57.499769,1.500016 C57.499769,0.945326 57.050558,0.5 56.499769,0.5 L56.5,0.5 Z M48.1172,67.5 L54.8828,67.5 L51.5,74.2656 L48.1172,67.5 Z M47.50001,2.5 L55.50001,2.5 L55.50001,8 L47.50001,8 L47.50001,2.5 Z M55.50001,65.5 L47.50001,65.5 L47.50001,10 L55.50001,10 L55.50001,65.5 Z" id="Shape"></path>
        </g>
      </g>
    </g>
  </g>
</svg>
