<?xml version="1.0" encoding="UTF-8"?>
<svg xmlns="http://www.w3.org/2000/svg" xmlns:xlink="http://www.w3.org/1999/xlink" width="86px" height="72px" viewBox="0 0 86 72" version="1.1">
  <!-- Generator: Sketch 55.2 (78181) - https://sketchapp.com -->
  <title>np_handshake_540620_FDB927</title>
  <desc>Created with Sketch.</desc>
  <g id="SNY-Visual-Design" stroke="none" stroke-width="1" fill="none" fill-rule="evenodd">
    <g id="Home" transform="translate(-679.000000, -4487.000000)" fill="#FDB927" fill-rule="nonzero">
      <g id="np_handshake_540620_FDB927" transform="translate(679.000000, 4487.000000)">
        <path d="M24.2796601,56.5782851 L22.4962563,55.289275 C22.4386183,55.9603665 22.2351904,56.6115395 21.9029254,57.1995717 C21.824945,57.3258192 21.7469611,57.4420989 21.6689833,57.5417599 L23.2658619,58.7045566 L23.5574454,58.9138549 C23.6727196,58.7510617 23.781215,58.5882769 23.8897103,58.4288091 C24.205024,57.9238277 24.4423598,57.3723243 24.5915366,56.7975598 L24.2796601,56.5782851 Z M36.2002657,65.2524833 L34.7965957,64.2026323 C34.2981939,64.8139256 33.7116418,65.3488444 33.0538994,65.7873596 L34.9424135,67.1627801 L35.0102232,67.2192581 C35.6171203,66.7176021 36.16635,66.1561393 36.6478092,65.5381697 L36.2002657,65.2524833 Z M69.9865983,57.8073354 L69.9865983,57.4917252 L69.9865983,56.8339184 L69.9865983,56.8372404 C70.0103319,56.2724608 69.9323506,55.711015 69.7526562,55.1761387 L69.4305638,54.5282997 C68.4337949,52.8107251 67.0877577,51.319042 65.4772521,50.1362586 L64.2702626,49.2592282 L67.5996824,56.0432864 C67.5996824,56.3854745 67.6776636,57.2658729 67.6878327,57.5715408 C67.6980043,57.8771917 67.6878327,57.887151 67.6878327,57.9901459 C67.7454715,58.5482832 67.5691648,59.1031036 67.1996034,59.5283511 C67.0266878,59.7310071 66.8368209,59.9236952 66.6333964,60.0997817 L66.5181222,60.1761927 C65.7450969,60.7077521 64.7177931,60.7077521 63.9481702,60.1761927 L48.4333293,48.0566394 C47.924755,47.6911902 47.2127996,47.7808919 46.8160536,48.2592953 C46.4193684,48.7410242 46.4803949,49.4419936 46.9516729,49.8506565 L58.5606797,59.0130388 C59.7235766,59.9233235 60.5983967,61.1392762 61.0933961,62.5146967 L61.2290153,62.896756 C61.3442895,63.2256594 61.2663108,63.5944255 61.0255821,63.8502459 L60.9374318,63.9366222 C60.3373134,64.4781493 59.5303767,64.747246 58.7166613,64.6808053 C58.0385651,64.5778188 57.4011764,64.3020714 56.8654696,63.8801408 L43.5613308,52.2258082 C43.0798803,51.8005608 42.3339441,51.8371065 41.8965775,52.3121845 C41.4625959,52.7872625 41.4998923,53.5181864 41.9847278,53.9434339 L52.9601215,63.6977607 C53.109307,63.8273251 53.2144087,63.9967607 53.2618776,64.1861319 L53.2618776,64.2990861 L53.8280847,65.8738626 C53.8721616,66.3323304 53.8450377,66.7974151 53.7501043,67.2492831 L53.5839674,67.5914712 C53.4652995,67.8439662 53.2347512,68.0333289 52.9601189,68.1064204 C51.6887266,68.4486086 50.3256773,68.0831645 49.4068515,67.1529305 L41.6731265,59.5183774 C41.2154148,59.0864875 40.4864473,59.0864875 40.0287703,59.5183774 C39.5642712,59.9436248 39.5337623,60.6578705 39.9609607,61.1196893 L46.3418784,68.1429067 L46.3384882,68.1462287 C46.5419213,68.3488846 46.6402442,68.6279575 46.6097266,68.9103474 C46.5792125,69.1927372 46.4232534,69.4485491 46.1825239,69.6047 L46.0570771,69.6910763 C44.5279865,69.6478873 43.0225913,69.3256271 41.6155362,68.7375863 C40.8797986,68.4385863 40.1780157,68.0664948 39.5201865,67.6312625 C39.4794998,67.7608269 39.4184699,67.8837574 39.3472708,68.003354 C38.9912671,68.5648168 38.4928653,69.0265845 37.8961233,69.3388863 C40.3847472,71.0630947 43.3582152,71.9933661 46.4062414,72 C46.6435772,71.996678 46.8707405,71.926911 47.0707713,71.800661 L47.4572839,71.5149457 C48.1150351,71.0697626 48.5931005,70.4152557 48.8134763,69.6611218 C50.2408417,70.5315184 51.9767679,70.7641287 53.5940436,70.3122778 C54.5094843,70.0531405 55.2723371,69.4252115 55.6893934,68.5847524 L55.8555302,68.2425643 L55.8555302,68.2392422 C56.1064236,67.6080134 56.2318704,66.9335623 56.2250916,66.255888 C56.8658914,66.6113693 57.5643587,66.8572134 58.289889,66.9801354 C59.8833825,67.1728236 61.4803479,66.6379473 62.6229346,65.5316575 L62.7110849,65.4353134 C63.4230837,64.6878049 63.735021,63.654547 63.5485304,62.6479862 C64.9792808,63.1629354 66.5796313,62.9503117 67.8239432,62.0865235 L67.9120935,61.9702438 C68.2714823,61.6911794 68.6003622,61.3722438 68.885167,61.0167539 C69.6819311,60.1397235 70.0786163,58.9802437 69.9870462,57.8108131 L69.9865983,57.8073354 Z M45.0326585,29.0265856 L45.0326585,29.0830645 L47.4975001,29.0830645 C47.6331194,29.0664526 47.7721324,29.0664526 47.9077516,29.0830645 L46.6227322,27.2325575 L46.6193419,27.2325575 C46.4226962,26.9468422 46.1039888,26.7641219 45.7547725,26.7275761 L37.9634147,26.0498337 C37.4582342,25.9833888 36.9462488,25.9833888 36.4444793,26.0498337 L21.4148298,28.179388 L20.4417563,28.3122779 L16.9563636,28.4351999 L19.244922,29.6178982 C19.187284,29.9700542 19.1194753,30.3155678 19.0516613,30.6677492 L20.7164146,30.6677492 L21.4758823,30.5614373 L36.7468256,28.3886778 C37.0485816,28.3421668 37.3571078,28.3421668 37.6622663,28.3886778 L39.5609356,28.5514711 L45.0326585,29.0265856 Z M17.5494741,53.3822101 L15.5999421,52.7443389 L15.5999421,52.7410168 C14.7624966,52.4619524 13.8945681,52.2925168 13.0095929,52.2360354 C12.799381,52.2227465 12.589169,52.2227465 12.3789657,52.2360354 L10.7718451,52.2360354 L11.2770257,50.6413574 C10.8294866,51.3722557 10.361585,52.0997862 9.87335574,52.8174338 L8.25608005,52.332388 L8.05264685,52.9636169 L8.05264685,52.9602949 C7.94415146,53.3091339 8.00518055,53.6845423 8.21878368,53.9835253 C8.44255325,54.2924932 8.8053358,54.4718966 9.19185714,54.4586033 L12.3789309,54.4586033 C13.2367215,54.4718923 14.0877767,54.6114288 14.9014054,54.8805254 L16.2643679,55.3290254 L18.5156906,56.0632407 C18.6411373,55.824039 18.7869291,55.5682271 18.9632298,55.299122 L18.9598395,55.299122 C19.302277,54.8838423 19.7193072,54.5350033 20.1872262,54.2692576 L17.5494741,53.3822101 Z M29.7521676,60.5483106 L28.7214614,59.7941597 C28.2705285,60.4287055 27.7382328,61.0067954 27.1415082,61.5117343 L29.0910401,62.8971056 C29.6538621,62.3589038 30.1692239,61.7741971 30.6302859,61.1495935 L29.7521676,60.5483106 Z" id="Shape"></path>
        <path d="M76.1004952,51.9317597 C75.8098736,51.5029963 75.519252,51.0642948 75.2455344,50.6221812 L74.0526483,51.1007972 L74.0492692,51.1007972 C73.6741706,51.257009 73.4038269,51.5927039 73.3328541,51.9882577 L73.3328541,52.1710592 C73.3328541,53.0053146 72.646856,53.6833156 71.7986862,53.6900375 L69.0817538,53.6900375 C68.0882732,51.9716997 66.7466764,50.4793537 65.1381099,49.2960448 L63.9351021,48.4186246 L49.4342995,37.812494 C47.7716642,36.596001 45.7914508,35.8748011 43.7266306,35.7384913 L40.9792467,35.5490359 C40.6514517,35.5191227 40.3304218,35.6321288 40.0939036,35.8548226 C39.8539768,36.0708678 39.7188049,36.3733276 39.7154224,36.6924049 C39.7188015,40.3218883 36.7754673,43.2899883 33.0852111,43.3764369 L32.6898346,43.3764369 C31.436132,42.6984019 31.3212467,42.2297155 31.3110385,42.1732176 C31.2941414,42.126685 31.2941414,42.0768307 31.3110385,42.0302965 C31.3921416,41.963822 31.4597319,41.88073 31.5138006,41.7909885 L32.483664,40.3385484 L32.483664,40.3418719 C33.2304873,38.8129384 33.7204972,37.1810493 33.940146,35.4992139 C34.2206286,34.2561737 34.9910692,33.1725871 36.086026,32.4946116 L42.5134579,28.4761941 L42.5134579,28.4728706 C42.8040795,28.2967144 43.1420048,28.2069728 43.4833213,28.2169451 L47.3661487,28.2169451 C47.5013205,28.1970032 47.6364923,28.1970032 47.7750467,28.2169451 C47.8865667,28.2402113 47.9980781,28.2734481 48.1028417,28.3199773 L54.5302736,30.5834694 C56.3719845,31.2016796 58.3015896,31.5241093 60.2480641,31.537383 C61.7721104,31.5573257 63.2961567,31.4144063 64.789838,31.1086196 C65.5603218,30.9756707 66.3206321,30.7995145 67.0708466,30.5834694 C66.9458137,29.9918489 66.8376763,29.3902903 66.7295388,28.7985933 L69.4769227,27.3760189 L69.4803027,27.3760189 C69.3045749,27.356077 69.1254733,27.3793424 68.9632671,27.4424933 L67.5270284,27.9875795 C66.5064702,28.3930715 65.4487992,28.7121488 64.3741723,28.9414931 C63.0224538,29.2206815 61.6471182,29.350312 60.2649483,29.3336945 C58.571948,29.3037812 56.8890694,29.0112902 55.2872506,28.4629112 L48.8902702,26.3057782 C48.3935126,26.1030322 47.8629642,26 47.3256507,26 L43.4428234,26 C42.6723482,26 41.9120293,26.2160451 41.2598306,26.6215371 L39.4046241,27.7183974 L34.8323987,30.5834566 C33.2035888,31.5938682 32.0478155,33.2025285 31.6322215,35.0505393 C31.6254625,35.0804526 31.6254625,35.1103667 31.6322215,35.1369539 C31.4598763,36.5196224 31.0780127,37.8657033 30.5035258,39.1386943 L29.638426,40.4948155 L29.6418051,40.4948155 C29.151804,41.0399017 28.9287726,41.7678064 29.0200147,42.4890914 C29.1754644,43.645768 30.1352148,44.6860452 31.8654144,45.5635504 L31.8620344,45.5635504 C31.9972063,45.6333484 32.1425171,45.6732364 32.2912018,45.6865271 L33.1360236,45.6865271 C37.6271027,45.5934586 41.3849231,42.3029459 41.9963757,37.9256303 L43.5778646,38.0386347 L43.5812445,38.0386347 C45.1999327,38.1449938 46.7544305,38.7100245 48.0554541,39.6639721 L63.7526898,51.1473528 C65.2226673,52.2308543 66.4256751,53.6268815 67.2671577,55.2355418 C67.2908129,55.2754273 67.3144674,55.3153111 67.3347436,55.3585184 C67.5307406,55.7507198 67.9362561,56 68.3822929,56 L71.8088667,56 C73.116638,55.9966765 74.3332278,55.3485547 75.049617,54.271707 C75.3199607,53.8795056 75.5058187,53.4440969 75.6038172,52.982124 L78.3140018,51.8753085 C78.6451707,51.7456866 78.9020015,51.4698166 79,51.1307948 L76.1004952,51.9317597 Z" id="Path"></path>
        <path d="M21.6684185,27.8443722 C21.5837726,27.7578206 21.4855806,27.6879129 21.3772335,27.6313169 L12.661793,23.1372147 C12.370608,22.9807555 12.021869,22.9574472 11.7103321,23.070635 C11.3954494,23.1838185 11.1482793,23.4235056 11.0297736,23.7297768 L0.10665255,50.8108033 C-0.0355508499,51.1170744 -0.0355508499,51.4632807 0.10665255,51.7695519 C0.255634144,52.0625029 0.523112792,52.2788903 0.84476499,52.3720977 L10.2882981,54.9620825 C10.7724709,55.085254 11.2837045,54.9021611 11.5749415,54.5026843 L11.7510012,54.243021 C12.26565,53.5073157 12.7227447,52.7516343 13.2373501,51.985999 L13.2373501,51.9893286 C17.4527456,45.3013539 20.3442263,37.8910367 21.756119,30.1477568 C21.8441489,29.6983466 21.9220288,29.2588903 21.9897414,28.8095142 C22.0371437,28.4566435 21.9186388,28.1004407 21.6680892,27.8441182 L21.6684185,27.8443722 Z M11.5444657,50.3046564 C11.0975382,51.0370381 10.6302762,51.766045 10.1427143,52.4851491 L8.52764907,52.0457269 L2.77173114,50.4677545 L12.7700014,25.7763557 L17.2427429,28.1000214 L19.5281733,29.2851199 C19.4706141,29.6379906 19.4028981,29.9842053 19.3351768,30.3371015 C17.9740772,37.3979229 15.333095,44.1592738 11.544327,50.3046394 L11.5444657,50.3046564 Z" id="Shape"></path>
        <path d="M85.8984149,50.8434813 L74.9567953,23.7306338 C74.8347027,23.4240113 74.5871141,23.1840425 74.2750843,23.0707175 C73.9596684,22.957401 73.6137249,22.9807281 73.3186259,23.1373755 L64.629233,27.6367584 C64.1815487,27.8700635 63.93396,28.3533286 64.015358,28.8433001 C64.015358,29.0266064 64.0730155,29.2065851 64.1137127,29.3898914 C64.2290243,30.1564606 64.3782582,30.913064 64.5342731,31.6696163 L64.5308809,31.6696163 C66.0808713,39.0886409 68.9840211,46.1743968 73.1047972,52.5769775 C73.5253576,53.2368938 73.9628661,53.880104 74.4105504,54.4934003 C74.5123,54.6400521 74.6479633,54.7566962 74.8107591,54.8366858 C74.9837308,54.9400025 75.1804404,54.9933289 75.3839396,54.9900013 C75.4890753,55.0033329 75.5908249,55.0033329 75.6959693,54.9900013 L85.1554953,52.3969732 C85.4776922,52.3036477 85.7456325,52.0870145 85.8982526,51.7937193 C86.0339158,51.4904244 86.0339158,51.1471389 85.8982526,50.8438269 L85.8984149,50.8434813 Z M78.7761169,51.7133415 L75.8525633,52.5165736 C75.5608852,52.0866263 75.2692071,51.6467134 74.9944945,51.2033791 L74.9944945,51.2067126 C71.0432865,45.0508838 68.2655981,38.2385857 66.7902767,31.1030869 C66.6647893,30.5098328 66.5562587,29.9066132 66.4477281,29.3132823 L69.2050996,27.8867798 L73.2308898,25.7803444 L83.2669302,50.5007564 L78.7761169,51.7133415 Z" id="Shape"></path>
        <path d="M40.1433414,62.5313036 C39.6388643,62.2206332 39.0573481,62.0416636 38.4617513,62.0078977 C37.5859253,61.9606229 36.713615,62.126087 35.9253753,62.4907776 L35.4419204,62.7237761 C35.3823643,62.8318339 35.3298144,62.9263887 35.2702547,63.0141835 L35.2702547,63.0175601 C35.0250205,63.3923823 34.7552666,63.7537015 34.4679972,64.1015092 C33.9635202,64.7194614 33.3714211,65.2631735 32.7058701,65.7122616 L32.6042752,65.7797968 C32.1523445,66.661116 31.9456479,67.6403787 32.012212,68.6230993 C32.1278246,69.7374775 32.7794386,70.7302258 33.7708413,71.311058 C34.5275569,71.763552 35.3998761,72.003302 36.2897288,71.9999656 C37.2531229,71.9897999 38.1990286,71.7399176 39.0363259,71.2705406 C39.3936661,71.0814395 39.7299841,70.8585725 40.0417823,70.601931 C40.5287439,70.2000944 40.9491235,69.730726 41.2889392,69.2039228 C41.3870364,69.0485876 41.4746136,68.8865009 41.5516888,68.7210429 C41.8845001,67.917361 42.0351437,67.0528902 41.9931084,66.1884281 C42.0701808,64.7431338 41.3730187,63.362069 40.1433593,62.5313209 L40.1433414,62.5313036 Z M39.2079288,67.971364 C38.8400776,68.5454187 38.3250896,69.0147698 37.7084886,69.3322003 C36.89572,69.7981973 35.8832234,69.7981973 35.0704997,69.3322003 C34.4258902,68.9337351 34.2647355,68.254994 34.5975559,67.2959597 L34.6571119,67.130493 C34.8743196,66.6341015 35.1370692,66.1613445 35.441854,65.7122564 C35.5819865,65.5130238 35.7571499,65.3408056 35.9568421,65.198982 C36.272138,64.9862465 36.608456,64.8038968 36.9622984,64.6553131 L37.1619906,64.5776472 C37.4807932,64.442575 37.8241156,64.3716632 38.1709447,64.3649117 C38.4196765,64.3547811 38.6649107,64.4189406 38.8751139,64.5472614 C39.3655822,64.9693609 39.614314,65.59741 39.5372389,66.2255282 L39.5372389,66.3639805 C39.5512521,66.7793286 39.491696,67.1946767 39.3690799,67.5931592 C39.3305441,67.7248514 39.2744893,67.8531721 39.2079253,67.9713614 L39.2079288,67.971364 Z" id="Shape"></path>
        <path d="M36.7176867,55.7228006 C35.3500272,54.8931737 33.6755279,54.7713735 32.2066748,55.3902941 C31.8019171,55.5516128 31.4167547,55.7524331 31.0544381,55.9960504 C30.7737199,56.1902885 30.5125886,56.4075685 30.2743115,56.6478989 C30.3591771,56.8553014 30.4179295,57.0692946 30.4538361,57.2898699 C30.5289116,57.72443 30.2743115,58.1326612 29.778162,58.8701036 L29.4027847,59.4462273 C29.2722191,59.6635073 29.13186,59.8709183 28.9817074,60.0717386 C28.5475776,60.7005368 28.0351168,61.2733904 27.460628,61.7737556 C27.3724951,61.8560601 27.2778361,61.931779 27.1799097,62.0009132 C27.0297571,62.6889764 26.9710047,63.3967441 27.0134375,64.1013177 C27.0199654,64.2988511 27.0428146,64.4996714 27.0787203,64.6971964 C27.209286,66.178655 27.9927217,67.5218958 29.2167381,68.3547421 C29.8630401,68.7728425 30.6138114,68.9967131 31.3808272,69 C31.765998,68.9934161 32.1479014,68.9341569 32.5167693,68.8288122 C32.9737532,68.7037083 33.4143924,68.522643 33.8289436,68.2889033 C34.2173733,68.0716232 34.5829571,67.8181285 34.9256951,67.5317058 C34.9713926,67.5020767 35.0105607,67.4691556 35.0464673,67.4296522 C35.6307496,66.9325402 36.1595133,66.3761631 36.6230318,65.7637909 C36.8613173,65.4740814 37.086542,65.1580347 37.298706,64.8189376 L37.4782306,64.5456878 L37.4749667,64.5456878 C37.8862506,63.8411648 38.2355147,63.1037562 38.5260097,62.3399344 C38.7055344,61.8987837 38.8361,61.4378949 38.9209739,60.9703985 C39.2767643,58.935816 38.4117637,56.8782253 36.7176942,55.7226742 L36.7176867,55.7228006 Z M33.0618485,66.1262165 L33.0585845,66.1229245 C32.9508647,66.2019362 32.839886,66.2743657 32.7223811,66.3402046 C32.0597594,66.8406119 31.1653701,66.8801135 30.4636162,66.4455535 C29.6932747,65.876012 29.2461177,64.9673818 29.2624122,64.0060941 C29.242827,63.749304 29.242827,63.4958092 29.2624122,63.2390191 C29.2591483,63.2159747 29.2591483,63.1896374 29.2624122,63.1633002 C29.3505451,62.3534283 29.582296,61.5666321 29.9478798,60.8390504 C30.0719193,60.5822603 30.2090111,60.3320608 30.3591637,60.0917304 C30.878159,59.2818586 31.5081415,58.5510237 32.2360502,57.9255039 C32.3666158,57.8366147 32.506975,57.7543162 32.6473341,57.6785914 C33.1010508,57.438261 33.6069603,57.3065749 34.1194461,57.2999927 C34.5862152,57.2934079 35.0464831,57.4250966 35.4413972,57.6785914 C36.4271784,58.3304399 36.9331464,59.5156236 36.7176399,60.6876092 C36.6164547,61.1353421 36.469561,61.5732143 36.276984,61.9913231 C36.1235725,62.3666265 35.950574,62.7287654 35.7514541,63.0777653 C35.6959639,63.1831142 35.6470016,63.2752988 35.591508,63.3608926 L35.591508,63.3641846 C35.3597571,63.7296105 35.1116782,64.0818719 34.8407535,64.4209606 C34.3609236,65.0267169 33.7962282,65.5567904 33.1629953,65.9913336 L33.0618485,66.1262165 Z" id="Shape"></path>
        <path d="M24.7700418,53.1411021 C24.6585594,52.8403688 24.4978873,52.562774 24.2978719,52.3149167 C23.5371537,51.3036738 22.2681708,50.8178915 21.0320509,51.0623901 C19.8483104,51.4126914 18.7728542,52.067034 17.9137988,52.9593271 C17.6842696,53.1774385 17.4842543,53.4186884 17.3104705,53.6797604 C17.0547097,54.0862457 16.8284627,54.5059458 16.6317294,54.9421855 C16.2874357,55.6394888 16.0775824,56.3929337 16.0120075,57.1662769 C15.9037987,58.4683801 16.5333586,59.7175226 17.6416442,60.4016112 C18.6121738,61.0427305 19.832009,61.1782284 20.9172864,60.7618278 L21.3238813,60.5800698 L21.3238813,60.5833743 C22.0485299,60.1967196 22.6912015,59.667985 23.2060136,59.0268741 C23.3765152,58.8318928 23.5371873,58.6303041 23.6880214,58.4188001 C23.7995039,58.2568642 23.9044306,58.0949368 24.0093572,57.9363088 L24.0060785,57.9330034 C24.4946421,57.0969027 24.8159779,56.1715981 24.9504183,55.2098472 C25.055345,54.5158518 24.9930446,53.8052915 24.7700788,53.1410843 L24.7700418,53.1411021 Z M22.7174247,54.4993807 L22.7174247,54.8034219 L22.7174247,54.8001174 C22.6616827,55.4676748 22.464946,56.1154184 22.1436103,56.7003539 C22.068194,56.8259365 21.9927761,56.9416038 21.9173632,57.0407399 C21.697672,57.3579959 21.4484754,57.6488139 21.1730388,57.9165357 C20.9336717,58.1577856 20.6615172,58.3626737 20.3631393,58.5213017 C19.9040811,58.7823738 19.3367888,58.7559358 18.9007137,58.4552067 C18.477725,58.2205727 18.24164,57.7446887 18.3105055,57.2588556 C18.3760846,56.6871349 18.5498725,56.1319623 18.8253008,55.6262985 C18.9466212,55.3883565 19.0876174,55.1338919 19.258119,54.8662039 L19.2613978,54.8662039 C19.5892893,54.4332806 19.9991664,54.0664566 20.4647805,53.7855877 C20.7566109,53.5839991 21.0713909,53.4286705 21.4091204,53.3196191 C21.4779783,53.3130091 21.5468345,53.3130091 21.6156916,53.3196191 C22.0321161,53.3295327 22.4059235,53.5906064 22.5567577,53.983877 C22.6124998,54.1524203 22.6354527,54.3308789 22.6321731,54.5060296 L22.7174247,54.4993807 Z" id="Shape"></path>
        <path d="M32.9850107,56.7437219 C32.9000293,56.1977717 32.7300674,55.668576 32.4785265,55.1762331 C32.0162312,54.2316756 31.288785,53.434598 30.3880379,52.8785472 C29.0011085,52.0110737 27.3083027,51.7732195 25.7310598,52.2220729 C25.2925559,52.3526955 24.8880507,52.5670559 24.5379246,52.8584574 C23.9940477,53.3541615 23.5385835,53.9402913 23.1918076,54.5900604 L22.8994716,55.062322 L22.8994716,55.3704694 C22.8416849,56.0436981 22.637732,56.7001896 22.3046096,57.2930246 C22.2264271,57.4203032 22.1482428,57.5375326 22.0700638,57.6380076 C21.8423143,57.9595481 21.5839771,58.2542936 21.2984374,58.525631 C21.1454732,59.0447861 21.0502904,59.5807127 21.0129064,60.1233017 C20.9823136,60.5486698 21.0061075,60.9807431 21.0842901,61.4027758 C21.3902186,63.4492314 23.1612034,64.9732478 25.2619604,65 C25.9044138,64.9899516 26.5366337,64.8593282 27.1281106,64.6148201 C27.6175998,64.413853 28.0833324,64.1526078 28.5150401,63.8444604 C28.8345699,63.6166983 29.1404985,63.3688462 29.4328431,63.1042484 C29.9971175,62.5616508 30.5138092,61.9721684 30.9726673,61.3424634 C31.1494229,61.0912588 31.3329835,60.8333575 31.5097478,60.5520053 L31.8598653,60.022801 L31.8632643,60.0261501 C32.4547325,59.2959873 32.8320612,58.4217914 32.9578056,57.4940397 C33.0019953,57.2461877 33.0121933,56.9949831 32.9849994,56.7437785 L32.9850107,56.7437219 Z M27.2436727,61.9017467 C26.2680882,62.6721064 25.1531842,62.9702045 24.2659252,62.4209018 C23.552089,61.9553368 23.1917467,61.1113315 23.3583035,60.2839862 C23.3685006,60.0763225 23.3990934,59.8653147 23.4466814,59.6610035 C23.494271,59.3796598 23.562253,59.1016602 23.6506395,58.8337097 C23.8953841,58.0800958 24.2217102,57.3565953 24.6262241,56.67673 L24.8131785,56.3685912 C24.9491477,56.1776733 25.057923,55.9733622 25.1734947,55.7924935 C25.6425863,55.0120845 25.9043259,54.6001354 26.3462672,54.4728053 C26.6453995,54.3857236 26.9581243,54.3421827 27.2742516,54.3388301 C27.9133026,54.3455284 28.5387435,54.5263954 29.0792266,54.8579852 C29.6910837,55.2398124 30.1635865,55.8058867 30.418556,56.47572 C30.5035365,56.6867277 30.5681264,56.9044407 30.6021166,57.1288503 C30.6802991,57.5709642 30.4151622,57.9862917 29.8984792,58.736553 L29.5075666,59.3226914 L29.5109656,59.3226914 C29.3749964,59.5437484 29.2288284,59.7547648 29.0690678,59.9590759 C28.6169713,60.5988044 28.0866957,61.1782719 27.4884312,61.6906789 C27.4102496,61.7643649 27.3286706,61.8347034 27.2436866,61.9016867 L27.2436727,61.9017467 Z" id="Shape"></path>
        <path d="M26.8744939,21 C26.5019087,21 26.1520077,20.8093046 25.9446482,20.4914876 L20.1744796,11.7831861 C19.8504975,11.2545987 19.9898043,10.5553909 20.491984,10.2007383 C20.9941637,9.84946009 21.6777839,9.96990152 22.0341791,10.4784139 L27.8043478,19.1867155 L27.8043478,19.1833702 C28.0408608,19.5379885 28.0635368,19.9996621 27.869145,20.3810186 C27.6747492,20.7624007 27.2924516,21 26.8745229,21 L26.8744939,21 Z" id="Path"></path>
        <path d="M36.802924,19 C36.2418902,18.9966625 35.7638184,18.5929 35.6676159,18.0389721 L33.0151644,1.37090349 C32.9122567,0.726878087 33.3438165,0.119602397 33.9844977,0.0161530784 C34.6252044,-0.0906278037 35.2293508,0.343167394 35.3322671,0.987175708 L37.9847185,17.6449933 L37.9847185,17.64833 C38.0345135,17.9519892 37.9614804,18.2623201 37.7822175,18.5125718 C37.6029511,18.7628405 37.3340601,18.9296835 37.0319657,18.9797424 L36.802924,19 Z" id="Path"></path>
        <path d="M58.1221621,21 C57.7082848,21 57.3267396,20.7640684 57.1295188,20.3852371 C56.9355097,20.0064143 56.9613853,19.5478304 57.1941871,19.1956259 L62.9238217,10.5389586 C63.0887269,10.2731165 63.3474002,10.0870271 63.6481069,10.0238886 C63.9455854,9.96075087 64.2559934,10.0238886 64.5082267,10.2000078 C64.7604353,10.3761271 64.9318053,10.6486131 64.98354,10.9576534 C65.0352746,11.2666937 64.9641399,11.5823864 64.7830661,11.8348896 L59.0243774,20.4847513 C58.8239035,20.7971179 58.4876282,20.986525 58.1222904,20.9998214 L58.1221621,21 Z" id="Path"></path>
        <path d="M47.1513572,19 L46.9686592,19 C46.6663705,18.9497935 46.3972982,18.7795118 46.2179252,18.5324266 C46.0385436,18.2820078 45.965461,17.9681488 46.0152939,17.6643333 L48.7060171,0.976871259 C48.8056745,0.345819706 49.3969601,-0.0882440627 50.0281205,0.015267265 C50.6559474,0.115436485 51.0877931,0.709759038 50.9848108,1.34082769 L48.2940876,18.0317087 C48.2010718,18.5926444 47.7160851,19.0033134 47.1513317,19 L47.1513572,19 Z" id="Path"></path>
      </g>
    </g>
  </g>
</svg>
