<?xml version="1.0" encoding="UTF-8"?>
<svg xmlns="http://www.w3.org/2000/svg" xmlns:xlink="http://www.w3.org/1999/xlink" width="68px" height="68px" viewBox="0 0 68 68" version="1.1">
  <!-- Generator: Sketch 55.2 (78181) - https://sketchapp.com -->
  <title>np_set-square_336835_FDB927</title>
  <desc>Created with Sketch.</desc>
  <g id="SNY-Visual-Design" stroke="none" stroke-width="1" fill="none" fill-rule="evenodd">
    <g id="Capabilities" transform="translate(-497.000000, -1268.000000)" fill="#FDB927" fill-rule="nonzero">
      <g id="Group-6" transform="translate(152.000000, 690.000000)">
        <g id="np_set-square_336835_FDB927" transform="translate(345.000000, 578.000000)">
          <path d="M67.3891173,0.0759703569 C67.0202032,-0.0774997964 66.5922513,0.0051362348 66.3089245,0.291426978 L0.290765879,66.3088287 C0.00743911302,66.5921652 -0.0781482365,67.0171699 0.0753166508,67.3890585 C0.231735692,67.7579853 0.591794902,68 0.993144265,68 L67.0113029,68 C67.5573,68 68,67.5572848 68,67.0083223 L68,0.990920544 C68,0.589527186 67.7579936,0.229463177 67.3890795,0.076008135 L67.3891173,0.0759703569 Z M58.098266,66.0193268 L58.098266,62.3890686 C58.098266,61.8430528 57.655566,61.3973909 57.1066223,61.3973909 C56.5576786,61.3973909 56.1149786,61.8401061 56.1149786,62.3890686 L56.1149786,66.0193268 L53.1459407,66.0193268 L53.1459407,63.7083589 C53.1459407,63.162343 52.7002942,62.7166812 52.1542971,62.7166812 C51.6082999,62.7166812 51.1626534,63.1593963 51.1626534,63.7083589 L51.1626534,66.0193268 L48.1906689,66.0193268 L48.1936201,63.7083589 C48.1936201,63.162343 47.7509201,62.7166812 47.2019764,62.7166812 C46.6559793,62.7166812 46.2103327,63.1593963 46.2103327,63.7083589 L46.2103327,66.0193268 L43.2383483,66.0193268 L43.2413001,63.7083589 C43.2413001,63.162343 42.7956536,62.7166812 42.2496565,62.7166812 C41.7007127,62.7166812 41.2580128,63.1593963 41.2580128,63.7083589 L41.2580128,66.0193268 L38.2919215,66.0193268 L38.2919215,62.3890686 C38.2919215,61.8430528 37.846275,61.3973909 37.3002779,61.3973909 C36.7542807,61.3973909 36.3086342,61.8401061 36.3086342,62.3890686 L36.3086342,66.0193268 L33.3366497,66.0193268 L33.3396009,63.7083589 C33.3396009,63.162343 32.8969009,62.7166812 32.3479572,62.7166812 C31.8019601,62.7166812 31.3563135,63.1593963 31.3563135,63.7083589 L31.3563135,66.0193268 L28.3843291,66.0193268 L28.3872802,63.7083589 C28.3872802,63.162343 27.9445802,62.7166812 27.3956365,62.7166812 C26.8496394,62.7166812 26.4039928,63.1593963 26.4039928,63.7083589 L26.4039928,66.0193268 L23.4379016,66.0193268 L23.4379016,63.7083589 C23.4379016,63.162343 22.9952016,62.7166812 22.4462579,62.7166812 C21.9002608,62.7166812 21.4546142,63.1593963 21.4546142,63.7083589 L21.4546142,66.0193268 L18.4826298,66.0193268 L18.4826298,62.3890686 C18.4826298,61.8430528 18.0399298,61.3973909 17.4909861,61.3973909 C16.944989,61.3973909 16.4993424,61.8401061 16.4993424,62.3890686 L16.4993424,66.0193268 L3.38395752,66.0193268 L66.0195723,3.38156272 L66.0195723,16.5064644 L62.3894387,16.5064644 C61.8434416,16.5064644 61.397795,16.9491796 61.397795,17.4981421 C61.397795,18.044158 61.840495,18.4898198 62.3894387,18.4898198 L66.0195723,18.4898198 L66.0195723,21.4619063 L63.7086837,21.4560038 C63.1626866,21.4560038 62.71704,21.8987189 62.71704,22.4476815 C62.71704,22.9936974 63.15974,23.4393592 63.7086837,23.4393592 L66.0195723,23.4393592 L66.0195723,26.4114456 L63.7086837,26.4084944 C63.1626866,26.4084944 62.71704,26.8512096 62.71704,27.4001721 C62.71704,27.946188 63.15974,28.3918498 63.7086837,28.3918498 L66.0195723,28.3918498 L66.0195723,31.3639362 L63.7086837,31.3609843 C63.1626866,31.3609843 62.71704,31.8036994 62.71704,32.352662 C62.71704,32.8986778 63.15974,33.3443397 63.7086837,33.3443397 L66.0195723,33.3443397 L66.0195723,36.3164261 L62.3894387,36.3164261 C61.8434416,36.3164261 61.397795,36.7591413 61.397795,37.3081038 C61.397795,37.8541197 61.840495,38.2997815 62.3894387,38.2997815 L66.0195723,38.2997815 L66.0195723,41.2718679 L63.7086837,41.2659655 C63.1626866,41.2659655 62.71704,41.7086806 62.71704,42.2576432 C62.71704,42.803659 63.15974,43.2493209 63.7086837,43.2493209 L66.0195723,43.2493209 L66.0195723,46.2214073 L63.7086837,46.2184561 C63.1626866,46.2184561 62.71704,46.6611712 62.71704,47.2101338 C62.71704,47.7561497 63.15974,48.2018115 63.7086837,48.2018115 L66.0195723,48.2018115 L66.0195723,51.1738979 L63.7086837,51.1709459 C63.1626866,51.1709459 62.71704,51.6136611 62.71704,52.1626237 C62.71704,52.7086395 63.15974,53.1543014 63.7086837,53.1543014 L66.0195723,53.1543014 L66.0195723,56.1263878 L62.3894387,56.1263878 C61.8434416,56.1263878 61.397795,56.5691029 61.397795,57.1180655 C61.397795,57.6640814 61.840495,58.1097432 62.3894387,58.1097432 L66.0195723,58.1097432 L66.0195723,66.0310759 L58.0985115,66.0251734 L58.098266,66.0193268 Z" id="Shape"></path>
          <path d="M52.3832378,37.0766956 C52.0107731,36.9217604 51.5787024,37.0051853 51.2926487,37.2942089 L37.2935644,51.2926848 C37.0075107,51.578726 36.9210996,52.0077878 37.0760415,52.3832265 C37.2309835,52.755675 37.5945157,53 37.9997279,53 L51.9988122,53 C52.5530393,53 53,52.5530587 53,51.9988557 L53,38.0003799 C53,37.5981373 52.7586394,37.2316536 52.3831997,37.0767337 L52.3832378,37.0766956 Z M51.0006452,50.9973682 L40.41666,50.9973682 L51.0006452,40.4138431 L51.0006452,50.9973682 Z" id="Shape"></path>
        </g>
      </g>
    </g>
  </g>
</svg>
