<?xml version="1.0" encoding="UTF-8"?>
<svg xmlns="http://www.w3.org/2000/svg" xmlns:xlink="http://www.w3.org/1999/xlink" width="53px" height="66px" viewBox="0 0 53 66" version="1.1">
  <!-- Generator: Sketch 55.2 (78181) - https://sketchapp.com -->
  <title>np_award_2267300_FDB927</title>
  <desc>Created with Sketch.</desc>
  <g id="SNY-Visual-Design" stroke="none" stroke-width="1" fill="none" fill-rule="evenodd">
    <g id="Home" transform="translate(-304.000000, -3994.000000)" fill="#FDB927" fill-rule="nonzero">
      <g id="np_award_2267300_FDB927" transform="translate(304.000000, 3994.000000)">
        <path d="M26.49956,36.9992117 C32.3638951,36.9992117 37.6519328,33.4669836 39.8961926,28.0476423 C42.1398892,22.6283011 40.899245,16.3947917 36.7549948,12.2473769 C32.6063747,8.09928641 26.3680151,6.85877808 20.9527122,9.10658008 C15.5326791,11.3499903 12,16.637353 12,22.5015026 C12.0087993,30.502984 18.4978454,36.9909912 26.5003484,37 L26.49956,36.9992117 Z M26.49956,10.8174591 C31.2244774,10.8174591 35.4875235,13.6634437 37.2955903,18.0270692 C39.1037696,22.3950864 38.1050757,27.418492 34.7615488,30.7620989 C31.4179656,34.100751 26.3939186,35.1037654 22.0293982,33.2914251 C17.6608234,31.4834766 14.8144754,27.225479 14.8144754,22.5011647 C14.8232747,16.0480665 20.0496924,10.8224139 26.4992221,10.8179095 L26.49956,10.8174591 Z" id="Shape"></path>
        <path d="M1.56095551,59.548682 L8.69510731,58.8245018 L12.350834,65.0088995 C12.6034123,65.4398568 13.0686733,65.70642 13.5693718,65.70642 C13.60039,65.70642 13.6358389,65.70642 13.6668571,65.7019774 C14.1985919,65.6664349 14.6682882,65.3287867 14.8765468,64.8356272 L23.5881503,44.0787981 C25.4846996,44.3809038 27.4210653,44.4120106 29.3264627,44.1676533 L38.1222362,65.1292072 C38.3304948,65.6223554 38.8002024,65.960015 39.3319259,65.9955575 C39.3629441,66 39.3983931,66 39.4294112,66 C39.9301325,66 40.3953934,65.7334254 40.647949,65.3024796 L44.3036757,59.1180819 L51.4378275,59.842262 C51.9385488,59.8911333 52.4259639,59.6734322 52.7228392,59.2691347 C53.0197259,58.8692842 53.0817645,58.3361465 52.8912248,57.8740483 L43.8074352,36.2334902 C47.3567583,31.9239175 49.1469039,26.4237559 48.8190717,20.8438653 C48.4911713,15.2637472 46.0717466,10.016762 42.0438338,6.14689295 C38.015921,2.28168704 32.6808764,0.0869224872 27.1064801,0.00253033837 C21.5320839,-0.0818834203 16.1305653,1.94844041 11.9876277,5.69376853 C7.84457657,9.43466093 5.26559164,14.6060116 4.76930578,20.1723676 C4.27301992,25.7436143 5.89481405,31.2926824 9.31120055,35.708712 C9.29347605,35.7442545 9.26245904,35.7664695 9.24916538,35.802012 L0.112174004,57.5801908 C-0.0828011135,58.0422435 -0.0207625449,58.5753812 0.276124165,58.9797129 C0.573010875,59.3795633 1.06043732,59.5972655 1.56113588,59.5483931 L1.56095551,59.548682 Z M43.6879682,56.1943784 C43.1385031,56.1366221 42.6067796,56.4076335 42.3276344,56.8830161 L39.6467833,61.4235866 L32.1803752,43.6295817 C35.7208502,42.7232419 38.9821573,40.950529 41.6674324,38.4669887 L49.3465345,56.767119 L43.6879682,56.1943784 Z M26.7563961,2.91131388 C31.8566267,2.91131388 36.7530113,4.94616555 40.3597334,8.56263072 C43.9664554,12.1790959 45.9916421,17.083963 45.9916421,22.2018578 C45.9916421,27.3155443 43.9665689,32.2204115 40.3597334,35.8365354 C36.7483604,39.4574363 31.8563998,41.4878523 26.7563961,41.4878523 C21.6517415,41.4878523 16.7597809,39.4574363 13.1530589,35.8365354 C9.54610994,32.2200702 7.51661272,27.3152031 7.51661272,22.2018578 C7.52547554,17.0881713 9.55495801,12.1833041 13.1619069,8.56718016 C16.7644318,4.95071499 21.6563925,2.91586333 26.7561692,2.91131388 L26.7563961,2.91131388 Z M11.3845796,38.0500664 C14.0078049,40.6135632 17.2336063,42.4795169 20.7608092,43.479143 L13.356451,61.1309779 L10.6755998,56.594843 L10.671169,56.594843 C10.3920125,56.1150134 9.86027761,55.8484502 9.31083528,55.9017583 L3.65226897,56.4748856 L11.3845796,38.0500664 Z" id="Shape"></path>
      </g>
    </g>
  </g>
</svg>
